<mxfile host="app.diagrams.net" modified="2024-05-21T15:28:00.433Z" agent="Mozilla/5.0 (Windows NT 10.0; Win64; x64) AppleWebKit/537.36 (KHTML, like Gecko) Chrome/123.0.0.0 Safari/537.36 OPR/109.0.0.0" etag="jG3QrAsQrk-nodTo1wwl" version="24.4.4" type="device">
  <diagram name="Page-1" id="1GXbmWapCjPLJG6QWEFZ">
    <mxGraphModel dx="431" dy="746" grid="1" gridSize="10" guides="1" tooltips="1" connect="1" arrows="1" fold="1" page="1" pageScale="1" pageWidth="850" pageHeight="1100" math="0" shadow="0">
      <root>
        <mxCell id="0" />
        <mxCell id="1" parent="0" />
        <mxCell id="Yg8xTZ5kzi30A7Ruw8CX-9" style="edgeStyle=orthogonalEdgeStyle;rounded=0;orthogonalLoop=1;jettySize=auto;html=1;exitX=0.5;exitY=1;exitDx=0;exitDy=0;entryX=0.5;entryY=0;entryDx=0;entryDy=0;" edge="1" parent="1" source="Yg8xTZ5kzi30A7Ruw8CX-5" target="Yg8xTZ5kzi30A7Ruw8CX-6">
          <mxGeometry relative="1" as="geometry">
            <mxPoint x="275" y="330" as="targetPoint" />
            <Array as="points" />
          </mxGeometry>
        </mxCell>
        <mxCell id="Yg8xTZ5kzi30A7Ruw8CX-5" value="Determinar Protocolo" style="rounded=1;whiteSpace=wrap;html=1;" vertex="1" parent="1">
          <mxGeometry x="200" y="202.5" width="150" height="87.5" as="geometry" />
        </mxCell>
        <mxCell id="Yg8xTZ5kzi30A7Ruw8CX-19" style="edgeStyle=orthogonalEdgeStyle;rounded=0;orthogonalLoop=1;jettySize=auto;html=1;exitX=0.5;exitY=1;exitDx=0;exitDy=0;entryX=0.5;entryY=0;entryDx=0;entryDy=0;" edge="1" parent="1" source="Yg8xTZ5kzi30A7Ruw8CX-6" target="Yg8xTZ5kzi30A7Ruw8CX-18">
          <mxGeometry relative="1" as="geometry" />
        </mxCell>
        <mxCell id="Yg8xTZ5kzi30A7Ruw8CX-6" value="Enviar Solicitação" style="rounded=1;whiteSpace=wrap;html=1;" vertex="1" parent="1">
          <mxGeometry x="200" y="340" width="150" height="80" as="geometry" />
        </mxCell>
        <mxCell id="Yg8xTZ5kzi30A7Ruw8CX-16" style="edgeStyle=orthogonalEdgeStyle;rounded=0;orthogonalLoop=1;jettySize=auto;html=1;exitX=1;exitY=0.5;exitDx=0;exitDy=0;entryX=0;entryY=0.5;entryDx=0;entryDy=0;" edge="1" parent="1" source="Yg8xTZ5kzi30A7Ruw8CX-13" target="Yg8xTZ5kzi30A7Ruw8CX-15">
          <mxGeometry relative="1" as="geometry">
            <mxPoint x="180" y="90" as="targetPoint" />
          </mxGeometry>
        </mxCell>
        <mxCell id="Yg8xTZ5kzi30A7Ruw8CX-13" value="" style="ellipse;html=1;shape=startState;fillColor=#000000;strokeColor=#ff0000;" vertex="1" parent="1">
          <mxGeometry x="90" y="90" width="30" height="30" as="geometry" />
        </mxCell>
        <mxCell id="Yg8xTZ5kzi30A7Ruw8CX-17" style="edgeStyle=orthogonalEdgeStyle;rounded=0;orthogonalLoop=1;jettySize=auto;html=1;exitX=0.5;exitY=1;exitDx=0;exitDy=0;entryX=0.5;entryY=0;entryDx=0;entryDy=0;" edge="1" parent="1" source="Yg8xTZ5kzi30A7Ruw8CX-15" target="Yg8xTZ5kzi30A7Ruw8CX-5">
          <mxGeometry relative="1" as="geometry" />
        </mxCell>
        <mxCell id="Yg8xTZ5kzi30A7Ruw8CX-15" value="Receber Requisição de URL" style="rounded=1;whiteSpace=wrap;html=1;" vertex="1" parent="1">
          <mxGeometry x="200" y="60" width="150" height="90" as="geometry" />
        </mxCell>
        <mxCell id="Yg8xTZ5kzi30A7Ruw8CX-22" style="edgeStyle=orthogonalEdgeStyle;rounded=0;orthogonalLoop=1;jettySize=auto;html=1;exitX=0.5;exitY=1;exitDx=0;exitDy=0;entryX=0.5;entryY=0;entryDx=0;entryDy=0;" edge="1" parent="1" source="Yg8xTZ5kzi30A7Ruw8CX-18" target="Yg8xTZ5kzi30A7Ruw8CX-21">
          <mxGeometry relative="1" as="geometry" />
        </mxCell>
        <mxCell id="Yg8xTZ5kzi30A7Ruw8CX-18" value="Aguardar Resposta" style="rounded=1;whiteSpace=wrap;html=1;" vertex="1" parent="1">
          <mxGeometry x="200" y="470" width="150" height="80" as="geometry" />
        </mxCell>
        <mxCell id="Yg8xTZ5kzi30A7Ruw8CX-21" value="Processar Resposta" style="rounded=1;whiteSpace=wrap;html=1;" vertex="1" parent="1">
          <mxGeometry x="200" y="600" width="150" height="80" as="geometry" />
        </mxCell>
      </root>
    </mxGraphModel>
  </diagram>
</mxfile>
